<mxfile host="Electron" modified="2024-04-22T00:59:13.326Z" agent="Mozilla/5.0 (Windows NT 10.0; Win64; x64) AppleWebKit/537.36 (KHTML, like Gecko) draw.io/24.2.5 Chrome/120.0.6099.109 Electron/28.1.0 Safari/537.36" etag="_o_2K347StNwGMkjREJC" version="24.2.5" type="device">
  <diagram id="C5RBs43oDa-KdzZeNtuy" name="Page-1">
    <mxGraphModel dx="4485" dy="3105" grid="1" gridSize="10" guides="1" tooltips="1" connect="1" arrows="1" fold="1" page="1" pageScale="1" pageWidth="3600" pageHeight="2500" math="0" shadow="0">
      <root>
        <mxCell id="WIyWlLk6GJQsqaUBKTNV-0" />
        <mxCell id="WIyWlLk6GJQsqaUBKTNV-1" parent="WIyWlLk6GJQsqaUBKTNV-0" />
        <mxCell id="UTV6f1B9EW_PD0q9mYSq-52" style="edgeStyle=orthogonalEdgeStyle;rounded=0;orthogonalLoop=1;jettySize=auto;html=1;entryX=0.653;entryY=1.427;entryDx=0;entryDy=0;entryPerimeter=0;" edge="1" parent="WIyWlLk6GJQsqaUBKTNV-1" source="PDaaazuxyIUYCQPAJg8h-4" target="UTV6f1B9EW_PD0q9mYSq-39">
          <mxGeometry relative="1" as="geometry">
            <mxPoint x="3250" y="1416.39990234375" as="targetPoint" />
            <Array as="points">
              <mxPoint x="280" y="2340" />
              <mxPoint x="2929" y="2340" />
            </Array>
          </mxGeometry>
        </mxCell>
        <mxCell id="PDaaazuxyIUYCQPAJg8h-4" value="MainWindow" style="swimlane;fontStyle=0;childLayout=stackLayout;horizontal=1;startSize=30;horizontalStack=0;resizeParent=1;resizeParentMax=0;resizeLast=0;collapsible=1;marginBottom=0;whiteSpace=wrap;html=1;" parent="WIyWlLk6GJQsqaUBKTNV-1" vertex="1">
          <mxGeometry x="240" y="240" width="320" height="1830" as="geometry" />
        </mxCell>
        <mxCell id="PDaaazuxyIUYCQPAJg8h-5" value="&lt;pre style=&quot;margin-top: 0px; margin-bottom: 0px;&quot;&gt;&lt;font style=&quot;font-size: 12px;&quot; face=&quot;Helvetica&quot;&gt;- Ui :: MainWindow *ui&lt;/font&gt;&lt;/pre&gt;" style="text;strokeColor=none;fillColor=none;align=left;verticalAlign=middle;spacingLeft=4;spacingRight=4;overflow=hidden;points=[[0,0.5],[1,0.5]];portConstraint=eastwest;rotatable=0;whiteSpace=wrap;html=1;" parent="PDaaazuxyIUYCQPAJg8h-4" vertex="1">
          <mxGeometry y="30" width="320" height="30" as="geometry" />
        </mxCell>
        <mxCell id="PDaaazuxyIUYCQPAJg8h-6" value="- QGraphicsScene *scene" style="text;strokeColor=none;fillColor=none;align=left;verticalAlign=middle;spacingLeft=4;spacingRight=4;overflow=hidden;points=[[0,0.5],[1,0.5]];portConstraint=eastwest;rotatable=0;whiteSpace=wrap;html=1;" parent="PDaaazuxyIUYCQPAJg8h-4" vertex="1">
          <mxGeometry y="60" width="320" height="30" as="geometry" />
        </mxCell>
        <mxCell id="PDaaazuxyIUYCQPAJg8h-7" value="- Handler *control" style="text;strokeColor=none;fillColor=none;align=left;verticalAlign=middle;spacingLeft=4;spacingRight=4;overflow=hidden;points=[[0,0.5],[1,0.5]];portConstraint=eastwest;rotatable=0;whiteSpace=wrap;html=1;" parent="PDaaazuxyIUYCQPAJg8h-4" vertex="1">
          <mxGeometry y="90" width="320" height="30" as="geometry" />
        </mxCell>
        <mxCell id="PDaaazuxyIUYCQPAJg8h-48" value="- session_log *log" style="text;strokeColor=none;fillColor=none;align=left;verticalAlign=middle;spacingLeft=4;spacingRight=4;overflow=hidden;points=[[0,0.5],[1,0.5]];portConstraint=eastwest;rotatable=0;whiteSpace=wrap;html=1;" parent="PDaaazuxyIUYCQPAJg8h-4" vertex="1">
          <mxGeometry y="120" width="320" height="30" as="geometry" />
        </mxCell>
        <mxCell id="PDaaazuxyIUYCQPAJg8h-50" value="- QDateTime currentDateandTime" style="text;strokeColor=none;fillColor=none;align=left;verticalAlign=middle;spacingLeft=4;spacingRight=4;overflow=hidden;points=[[0,0.5],[1,0.5]];portConstraint=eastwest;rotatable=0;whiteSpace=wrap;html=1;" parent="PDaaazuxyIUYCQPAJg8h-4" vertex="1">
          <mxGeometry y="150" width="320" height="30" as="geometry" />
        </mxCell>
        <mxCell id="PDaaazuxyIUYCQPAJg8h-49" value="- QProgressBar *batteryProgressBar" style="text;strokeColor=none;fillColor=none;align=left;verticalAlign=middle;spacingLeft=4;spacingRight=4;overflow=hidden;points=[[0,0.5],[1,0.5]];portConstraint=eastwest;rotatable=0;whiteSpace=wrap;html=1;" parent="PDaaazuxyIUYCQPAJg8h-4" vertex="1">
          <mxGeometry y="180" width="320" height="30" as="geometry" />
        </mxCell>
        <mxCell id="PDaaazuxyIUYCQPAJg8h-55" value="- QLabel *lowBatteryMsg" style="text;strokeColor=none;fillColor=none;align=left;verticalAlign=middle;spacingLeft=4;spacingRight=4;overflow=hidden;points=[[0,0.5],[1,0.5]];portConstraint=eastwest;rotatable=0;whiteSpace=wrap;html=1;" parent="PDaaazuxyIUYCQPAJg8h-4" vertex="1">
          <mxGeometry y="210" width="320" height="30" as="geometry" />
        </mxCell>
        <mxCell id="PDaaazuxyIUYCQPAJg8h-57" value="- QTimer *sessionTimer" style="text;strokeColor=none;fillColor=none;align=left;verticalAlign=middle;spacingLeft=4;spacingRight=4;overflow=hidden;points=[[0,0.5],[1,0.5]];portConstraint=eastwest;rotatable=0;whiteSpace=wrap;html=1;" parent="PDaaazuxyIUYCQPAJg8h-4" vertex="1">
          <mxGeometry y="240" width="320" height="30" as="geometry" />
        </mxCell>
        <mxCell id="PDaaazuxyIUYCQPAJg8h-61" value="- QTimer *progressBarTimer" style="text;strokeColor=none;fillColor=none;align=left;verticalAlign=middle;spacingLeft=4;spacingRight=4;overflow=hidden;points=[[0,0.5],[1,0.5]];portConstraint=eastwest;rotatable=0;whiteSpace=wrap;html=1;" parent="PDaaazuxyIUYCQPAJg8h-4" vertex="1">
          <mxGeometry y="270" width="320" height="30" as="geometry" />
        </mxCell>
        <mxCell id="PDaaazuxyIUYCQPAJg8h-60" value="- QTimer *labelTimer" style="text;strokeColor=none;fillColor=none;align=left;verticalAlign=middle;spacingLeft=4;spacingRight=4;overflow=hidden;points=[[0,0.5],[1,0.5]];portConstraint=eastwest;rotatable=0;whiteSpace=wrap;html=1;" parent="PDaaazuxyIUYCQPAJg8h-4" vertex="1">
          <mxGeometry y="300" width="320" height="30" as="geometry" />
        </mxCell>
        <mxCell id="PDaaazuxyIUYCQPAJg8h-58" value="- QTimer *contactCheckTimer" style="text;strokeColor=none;fillColor=none;align=left;verticalAlign=middle;spacingLeft=4;spacingRight=4;overflow=hidden;points=[[0,0.5],[1,0.5]];portConstraint=eastwest;rotatable=0;whiteSpace=wrap;html=1;" parent="PDaaazuxyIUYCQPAJg8h-4" vertex="1">
          <mxGeometry y="330" width="320" height="30" as="geometry" />
        </mxCell>
        <mxCell id="PDaaazuxyIUYCQPAJg8h-59" value="- QTimer *batteryTimer" style="text;strokeColor=none;fillColor=none;align=left;verticalAlign=middle;spacingLeft=4;spacingRight=4;overflow=hidden;points=[[0,0.5],[1,0.5]];portConstraint=eastwest;rotatable=0;whiteSpace=wrap;html=1;" parent="PDaaazuxyIUYCQPAJg8h-4" vertex="1">
          <mxGeometry y="360" width="320" height="30" as="geometry" />
        </mxCell>
        <mxCell id="PDaaazuxyIUYCQPAJg8h-56" value="- int contactLostTimer" style="text;strokeColor=none;fillColor=none;align=left;verticalAlign=middle;spacingLeft=4;spacingRight=4;overflow=hidden;points=[[0,0.5],[1,0.5]];portConstraint=eastwest;rotatable=0;whiteSpace=wrap;html=1;" parent="PDaaazuxyIUYCQPAJg8h-4" vertex="1">
          <mxGeometry y="390" width="320" height="30" as="geometry" />
        </mxCell>
        <mxCell id="PDaaazuxyIUYCQPAJg8h-52" value="- QMenu *menu" style="text;strokeColor=none;fillColor=none;align=left;verticalAlign=middle;spacingLeft=4;spacingRight=4;overflow=hidden;points=[[0,0.5],[1,0.5]];portConstraint=eastwest;rotatable=0;whiteSpace=wrap;html=1;" parent="PDaaazuxyIUYCQPAJg8h-4" vertex="1">
          <mxGeometry y="420" width="320" height="30" as="geometry" />
        </mxCell>
        <mxCell id="PDaaazuxyIUYCQPAJg8h-53" value="- QAction *newSessionAction" style="text;strokeColor=none;fillColor=none;align=left;verticalAlign=middle;spacingLeft=4;spacingRight=4;overflow=hidden;points=[[0,0.5],[1,0.5]];portConstraint=eastwest;rotatable=0;whiteSpace=wrap;html=1;" parent="PDaaazuxyIUYCQPAJg8h-4" vertex="1">
          <mxGeometry y="450" width="320" height="30" as="geometry" />
        </mxCell>
        <mxCell id="PDaaazuxyIUYCQPAJg8h-54" value="- QAction *sessionLogAction" style="text;strokeColor=none;fillColor=none;align=left;verticalAlign=middle;spacingLeft=4;spacingRight=4;overflow=hidden;points=[[0,0.5],[1,0.5]];portConstraint=eastwest;rotatable=0;whiteSpace=wrap;html=1;" parent="PDaaazuxyIUYCQPAJg8h-4" vertex="1">
          <mxGeometry y="480" width="320" height="30" as="geometry" />
        </mxCell>
        <mxCell id="PDaaazuxyIUYCQPAJg8h-51" value="- QAction *dateTimeSettingAction" style="text;strokeColor=none;fillColor=none;align=left;verticalAlign=middle;spacingLeft=4;spacingRight=4;overflow=hidden;points=[[0,0.5],[1,0.5]];portConstraint=eastwest;rotatable=0;whiteSpace=wrap;html=1;" parent="PDaaazuxyIUYCQPAJg8h-4" vertex="1">
          <mxGeometry y="510" width="320" height="30" as="geometry" />
        </mxCell>
        <mxCell id="PDaaazuxyIUYCQPAJg8h-62" value="- QLabel *sessionlabel" style="text;strokeColor=none;fillColor=none;align=left;verticalAlign=middle;spacingLeft=4;spacingRight=4;overflow=hidden;points=[[0,0.5],[1,0.5]];portConstraint=eastwest;rotatable=0;whiteSpace=wrap;html=1;" parent="PDaaazuxyIUYCQPAJg8h-4" vertex="1">
          <mxGeometry y="540" width="320" height="30" as="geometry" />
        </mxCell>
        <mxCell id="PDaaazuxyIUYCQPAJg8h-64" value="- int sessionPos" style="text;strokeColor=none;fillColor=none;align=left;verticalAlign=middle;spacingLeft=4;spacingRight=4;overflow=hidden;points=[[0,0.5],[1,0.5]];portConstraint=eastwest;rotatable=0;whiteSpace=wrap;html=1;" parent="PDaaazuxyIUYCQPAJg8h-4" vertex="1">
          <mxGeometry y="570" width="320" height="30" as="geometry" />
        </mxCell>
        <mxCell id="UTV6f1B9EW_PD0q9mYSq-0" value="- int sessionCount" style="text;strokeColor=none;fillColor=none;align=left;verticalAlign=middle;spacingLeft=4;spacingRight=4;overflow=hidden;points=[[0,0.5],[1,0.5]];portConstraint=eastwest;rotatable=0;whiteSpace=wrap;html=1;" vertex="1" parent="PDaaazuxyIUYCQPAJg8h-4">
          <mxGeometry y="600" width="320" height="30" as="geometry" />
        </mxCell>
        <mxCell id="UTV6f1B9EW_PD0q9mYSq-2" value="- bool pcOn" style="text;strokeColor=none;fillColor=none;align=left;verticalAlign=middle;spacingLeft=4;spacingRight=4;overflow=hidden;points=[[0,0.5],[1,0.5]];portConstraint=eastwest;rotatable=0;whiteSpace=wrap;html=1;" vertex="1" parent="PDaaazuxyIUYCQPAJg8h-4">
          <mxGeometry y="630" width="320" height="30" as="geometry" />
        </mxCell>
        <mxCell id="PDaaazuxyIUYCQPAJg8h-68" value="- static int elapsedTime" style="text;strokeColor=none;fillColor=none;align=left;verticalAlign=middle;spacingLeft=4;spacingRight=4;overflow=hidden;points=[[0,0.5],[1,0.5]];portConstraint=eastwest;rotatable=0;whiteSpace=wrap;html=1;" parent="PDaaazuxyIUYCQPAJg8h-4" vertex="1">
          <mxGeometry y="660" width="320" height="30" as="geometry" />
        </mxCell>
        <mxCell id="PDaaazuxyIUYCQPAJg8h-71" value="- QDateTimeEdit *dateTimeEdit" style="text;strokeColor=none;fillColor=none;align=left;verticalAlign=middle;spacingLeft=4;spacingRight=4;overflow=hidden;points=[[0,0.5],[1,0.5]];portConstraint=eastwest;rotatable=0;whiteSpace=wrap;html=1;" parent="PDaaazuxyIUYCQPAJg8h-4" vertex="1">
          <mxGeometry y="690" width="320" height="30" as="geometry" />
        </mxCell>
        <mxCell id="UTV6f1B9EW_PD0q9mYSq-3" value="- QDateTime sessionEndTime" style="text;strokeColor=none;fillColor=none;align=left;verticalAlign=middle;spacingLeft=4;spacingRight=4;overflow=hidden;points=[[0,0.5],[1,0.5]];portConstraint=eastwest;rotatable=0;whiteSpace=wrap;html=1;" vertex="1" parent="PDaaazuxyIUYCQPAJg8h-4">
          <mxGeometry y="720" width="320" height="30" as="geometry" />
        </mxCell>
        <mxCell id="UTV6f1B9EW_PD0q9mYSq-4" value="- WaveformGenerator *generator" style="text;strokeColor=none;fillColor=none;align=left;verticalAlign=middle;spacingLeft=4;spacingRight=4;overflow=hidden;points=[[0,0.5],[1,0.5]];portConstraint=eastwest;rotatable=0;whiteSpace=wrap;html=1;" vertex="1" parent="PDaaazuxyIUYCQPAJg8h-4">
          <mxGeometry y="750" width="320" height="30" as="geometry" />
        </mxCell>
        <mxCell id="UTV6f1B9EW_PD0q9mYSq-5" value="- QChartView *chartView" style="text;strokeColor=none;fillColor=none;align=left;verticalAlign=middle;spacingLeft=4;spacingRight=4;overflow=hidden;points=[[0,0.5],[1,0.5]];portConstraint=eastwest;rotatable=0;whiteSpace=wrap;html=1;" vertex="1" parent="PDaaazuxyIUYCQPAJg8h-4">
          <mxGeometry y="780" width="320" height="30" as="geometry" />
        </mxCell>
        <mxCell id="UTV6f1B9EW_PD0q9mYSq-6" value="- QTimer *chartUpdateTimer" style="text;strokeColor=none;fillColor=none;align=left;verticalAlign=middle;spacingLeft=4;spacingRight=4;overflow=hidden;points=[[0,0.5],[1,0.5]];portConstraint=eastwest;rotatable=0;whiteSpace=wrap;html=1;" vertex="1" parent="PDaaazuxyIUYCQPAJg8h-4">
          <mxGeometry y="810" width="320" height="30" as="geometry" />
        </mxCell>
        <mxCell id="UTV6f1B9EW_PD0q9mYSq-7" value="- int currentElectrode" style="text;strokeColor=none;fillColor=none;align=left;verticalAlign=middle;spacingLeft=4;spacingRight=4;overflow=hidden;points=[[0,0.5],[1,0.5]];portConstraint=eastwest;rotatable=0;whiteSpace=wrap;html=1;" vertex="1" parent="PDaaazuxyIUYCQPAJg8h-4">
          <mxGeometry y="840" width="320" height="30" as="geometry" />
        </mxCell>
        <mxCell id="UTV6f1B9EW_PD0q9mYSq-8" value="- SinewaveChart *sineWaveChart" style="text;strokeColor=none;fillColor=none;align=left;verticalAlign=middle;spacingLeft=4;spacingRight=4;overflow=hidden;points=[[0,0.5],[1,0.5]];portConstraint=eastwest;rotatable=0;whiteSpace=wrap;html=1;" vertex="1" parent="PDaaazuxyIUYCQPAJg8h-4">
          <mxGeometry y="870" width="320" height="30" as="geometry" />
        </mxCell>
        <mxCell id="UTV6f1B9EW_PD0q9mYSq-9" value="- QString sessionLogFilePath" style="text;strokeColor=none;fillColor=none;align=left;verticalAlign=middle;spacingLeft=4;spacingRight=4;overflow=hidden;points=[[0,0.5],[1,0.5]];portConstraint=eastwest;rotatable=0;whiteSpace=wrap;html=1;" vertex="1" parent="PDaaazuxyIUYCQPAJg8h-4">
          <mxGeometry y="900" width="320" height="30" as="geometry" />
        </mxCell>
        <mxCell id="UTV6f1B9EW_PD0q9mYSq-10" value="" style="endArrow=none;html=1;rounded=0;" edge="1" parent="PDaaazuxyIUYCQPAJg8h-4">
          <mxGeometry width="50" height="50" relative="1" as="geometry">
            <mxPoint y="929" as="sourcePoint" />
            <mxPoint x="320" y="929" as="targetPoint" />
          </mxGeometry>
        </mxCell>
        <mxCell id="PDaaazuxyIUYCQPAJg8h-70" value="# MainWindow(QWidget *parent)" style="text;strokeColor=none;fillColor=none;align=left;verticalAlign=middle;spacingLeft=4;spacingRight=4;overflow=hidden;points=[[0,0.5],[1,0.5]];portConstraint=eastwest;rotatable=0;whiteSpace=wrap;html=1;" parent="PDaaazuxyIUYCQPAJg8h-4" vertex="1">
          <mxGeometry y="930" width="320" height="30" as="geometry" />
        </mxCell>
        <mxCell id="PDaaazuxyIUYCQPAJg8h-69" value="# ~MainWindow()" style="text;strokeColor=none;fillColor=none;align=left;verticalAlign=middle;spacingLeft=4;spacingRight=4;overflow=hidden;points=[[0,0.5],[1,0.5]];portConstraint=eastwest;rotatable=0;whiteSpace=wrap;html=1;" parent="PDaaazuxyIUYCQPAJg8h-4" vertex="1">
          <mxGeometry y="960" width="320" height="30" as="geometry" />
        </mxCell>
        <mxCell id="UTV6f1B9EW_PD0q9mYSq-11" value="# createWaveChart()" style="text;strokeColor=none;fillColor=none;align=left;verticalAlign=middle;spacingLeft=4;spacingRight=4;overflow=hidden;points=[[0,0.5],[1,0.5]];portConstraint=eastwest;rotatable=0;whiteSpace=wrap;html=1;" vertex="1" parent="PDaaazuxyIUYCQPAJg8h-4">
          <mxGeometry y="990" width="320" height="30" as="geometry" />
        </mxCell>
        <mxCell id="UTV6f1B9EW_PD0q9mYSq-12" value="# displaySineWaveChart()" style="text;strokeColor=none;fillColor=none;align=left;verticalAlign=middle;spacingLeft=4;spacingRight=4;overflow=hidden;points=[[0,0.5],[1,0.5]];portConstraint=eastwest;rotatable=0;whiteSpace=wrap;html=1;" vertex="1" parent="PDaaazuxyIUYCQPAJg8h-4">
          <mxGeometry y="1020" width="320" height="30" as="geometry" />
        </mxCell>
        <mxCell id="PDaaazuxyIUYCQPAJg8h-67" value="# clearFrame(QFrame *frame)" style="text;strokeColor=none;fillColor=none;align=left;verticalAlign=middle;spacingLeft=4;spacingRight=4;overflow=hidden;points=[[0,0.5],[1,0.5]];portConstraint=eastwest;rotatable=0;whiteSpace=wrap;html=1;" parent="PDaaazuxyIUYCQPAJg8h-4" vertex="1">
          <mxGeometry y="1050" width="320" height="30" as="geometry" />
        </mxCell>
        <mxCell id="PDaaazuxyIUYCQPAJg8h-66" value="# displayMessage(const QString &amp;amp;output)" style="text;strokeColor=none;fillColor=none;align=left;verticalAlign=middle;spacingLeft=4;spacingRight=4;overflow=hidden;points=[[0,0.5],[1,0.5]];portConstraint=eastwest;rotatable=0;whiteSpace=wrap;html=1;" parent="PDaaazuxyIUYCQPAJg8h-4" vertex="1">
          <mxGeometry y="1080" width="320" height="30" as="geometry" />
        </mxCell>
        <mxCell id="PDaaazuxyIUYCQPAJg8h-65" value="# cleaningTimer()" style="text;strokeColor=none;fillColor=none;align=left;verticalAlign=middle;spacingLeft=4;spacingRight=4;overflow=hidden;points=[[0,0.5],[1,0.5]];portConstraint=eastwest;rotatable=0;whiteSpace=wrap;html=1;" parent="PDaaazuxyIUYCQPAJg8h-4" vertex="1">
          <mxGeometry y="1110" width="320" height="30" as="geometry" />
        </mxCell>
        <mxCell id="PDaaazuxyIUYCQPAJg8h-63" value="# cleaningIndicators()" style="text;strokeColor=none;fillColor=none;align=left;verticalAlign=middle;spacingLeft=4;spacingRight=4;overflow=hidden;points=[[0,0.5],[1,0.5]];portConstraint=eastwest;rotatable=0;whiteSpace=wrap;html=1;" parent="PDaaazuxyIUYCQPAJg8h-4" vertex="1">
          <mxGeometry y="1140" width="320" height="30" as="geometry" />
        </mxCell>
        <mxCell id="PDaaazuxyIUYCQPAJg8h-75" value="# powerButtonPressed()" style="text;strokeColor=none;fillColor=none;align=left;verticalAlign=middle;spacingLeft=4;spacingRight=4;overflow=hidden;points=[[0,0.5],[1,0.5]];portConstraint=eastwest;rotatable=0;whiteSpace=wrap;html=1;" parent="PDaaazuxyIUYCQPAJg8h-4" vertex="1">
          <mxGeometry y="1170" width="320" height="30" as="geometry" />
        </mxCell>
        <mxCell id="PDaaazuxyIUYCQPAJg8h-78" value="# upSelectorPressed()" style="text;strokeColor=none;fillColor=none;align=left;verticalAlign=middle;spacingLeft=4;spacingRight=4;overflow=hidden;points=[[0,0.5],[1,0.5]];portConstraint=eastwest;rotatable=0;whiteSpace=wrap;html=1;" parent="PDaaazuxyIUYCQPAJg8h-4" vertex="1">
          <mxGeometry y="1200" width="320" height="30" as="geometry" />
        </mxCell>
        <mxCell id="PDaaazuxyIUYCQPAJg8h-81" value="# downSelectorPressed()" style="text;strokeColor=none;fillColor=none;align=left;verticalAlign=middle;spacingLeft=4;spacingRight=4;overflow=hidden;points=[[0,0.5],[1,0.5]];portConstraint=eastwest;rotatable=0;whiteSpace=wrap;html=1;" parent="PDaaazuxyIUYCQPAJg8h-4" vertex="1">
          <mxGeometry y="1230" width="320" height="30" as="geometry" />
        </mxCell>
        <mxCell id="PDaaazuxyIUYCQPAJg8h-83" value="# okButtonPressed()" style="text;strokeColor=none;fillColor=none;align=left;verticalAlign=middle;spacingLeft=4;spacingRight=4;overflow=hidden;points=[[0,0.5],[1,0.5]];portConstraint=eastwest;rotatable=0;whiteSpace=wrap;html=1;" parent="PDaaazuxyIUYCQPAJg8h-4" vertex="1">
          <mxGeometry y="1260" width="320" height="30" as="geometry" />
        </mxCell>
        <mxCell id="PDaaazuxyIUYCQPAJg8h-87" value="# playButtonPressed()" style="text;strokeColor=none;fillColor=none;align=left;verticalAlign=middle;spacingLeft=4;spacingRight=4;overflow=hidden;points=[[0,0.5],[1,0.5]];portConstraint=eastwest;rotatable=0;whiteSpace=wrap;html=1;" parent="PDaaazuxyIUYCQPAJg8h-4" vertex="1">
          <mxGeometry y="1290" width="320" height="30" as="geometry" />
        </mxCell>
        <mxCell id="PDaaazuxyIUYCQPAJg8h-88" value="# pauseButtonPressed()" style="text;strokeColor=none;fillColor=none;align=left;verticalAlign=middle;spacingLeft=4;spacingRight=4;overflow=hidden;points=[[0,0.5],[1,0.5]];portConstraint=eastwest;rotatable=0;whiteSpace=wrap;html=1;" parent="PDaaazuxyIUYCQPAJg8h-4" vertex="1">
          <mxGeometry y="1320" width="320" height="30" as="geometry" />
        </mxCell>
        <mxCell id="PDaaazuxyIUYCQPAJg8h-86" value="# resetButtonPressed()" style="text;strokeColor=none;fillColor=none;align=left;verticalAlign=middle;spacingLeft=4;spacingRight=4;overflow=hidden;points=[[0,0.5],[1,0.5]];portConstraint=eastwest;rotatable=0;whiteSpace=wrap;html=1;" parent="PDaaazuxyIUYCQPAJg8h-4" vertex="1">
          <mxGeometry y="1350" width="320" height="30" as="geometry" />
        </mxCell>
        <mxCell id="PDaaazuxyIUYCQPAJg8h-85" value="# makeContact()" style="text;strokeColor=none;fillColor=none;align=left;verticalAlign=middle;spacingLeft=4;spacingRight=4;overflow=hidden;points=[[0,0.5],[1,0.5]];portConstraint=eastwest;rotatable=0;whiteSpace=wrap;html=1;" parent="PDaaazuxyIUYCQPAJg8h-4" vertex="1">
          <mxGeometry y="1380" width="320" height="30" as="geometry" />
        </mxCell>
        <mxCell id="PDaaazuxyIUYCQPAJg8h-84" value="# removeContact()" style="text;strokeColor=none;fillColor=none;align=left;verticalAlign=middle;spacingLeft=4;spacingRight=4;overflow=hidden;points=[[0,0.5],[1,0.5]];portConstraint=eastwest;rotatable=0;whiteSpace=wrap;html=1;" parent="PDaaazuxyIUYCQPAJg8h-4" vertex="1">
          <mxGeometry y="1410" width="320" height="30" as="geometry" />
        </mxCell>
        <mxCell id="PDaaazuxyIUYCQPAJg8h-82" value="# updateTimer()" style="text;strokeColor=none;fillColor=none;align=left;verticalAlign=middle;spacingLeft=4;spacingRight=4;overflow=hidden;points=[[0,0.5],[1,0.5]];portConstraint=eastwest;rotatable=0;whiteSpace=wrap;html=1;" parent="PDaaazuxyIUYCQPAJg8h-4" vertex="1">
          <mxGeometry y="1440" width="320" height="30" as="geometry" />
        </mxCell>
        <mxCell id="PDaaazuxyIUYCQPAJg8h-80" value="# updateBatteryDisplay()" style="text;strokeColor=none;fillColor=none;align=left;verticalAlign=middle;spacingLeft=4;spacingRight=4;overflow=hidden;points=[[0,0.5],[1,0.5]];portConstraint=eastwest;rotatable=0;whiteSpace=wrap;html=1;" parent="PDaaazuxyIUYCQPAJg8h-4" vertex="1">
          <mxGeometry y="1470" width="320" height="30" as="geometry" />
        </mxCell>
        <mxCell id="PDaaazuxyIUYCQPAJg8h-79" value="# clearLowBatteryMessage()" style="text;strokeColor=none;fillColor=none;align=left;verticalAlign=middle;spacingLeft=4;spacingRight=4;overflow=hidden;points=[[0,0.5],[1,0.5]];portConstraint=eastwest;rotatable=0;whiteSpace=wrap;html=1;" parent="PDaaazuxyIUYCQPAJg8h-4" vertex="1">
          <mxGeometry y="1500" width="320" height="30" as="geometry" />
        </mxCell>
        <mxCell id="PDaaazuxyIUYCQPAJg8h-77" value="# displayNewDateTime()" style="text;strokeColor=none;fillColor=none;align=left;verticalAlign=middle;spacingLeft=4;spacingRight=4;overflow=hidden;points=[[0,0.5],[1,0.5]];portConstraint=eastwest;rotatable=0;whiteSpace=wrap;html=1;" parent="PDaaazuxyIUYCQPAJg8h-4" vertex="1">
          <mxGeometry y="1530" width="320" height="30" as="geometry" />
        </mxCell>
        <mxCell id="UTV6f1B9EW_PD0q9mYSq-13" value="# updateEEGChart()" style="text;strokeColor=none;fillColor=none;align=left;verticalAlign=middle;spacingLeft=4;spacingRight=4;overflow=hidden;points=[[0,0.5],[1,0.5]];portConstraint=eastwest;rotatable=0;whiteSpace=wrap;html=1;" vertex="1" parent="PDaaazuxyIUYCQPAJg8h-4">
          <mxGeometry y="1560" width="320" height="30" as="geometry" />
        </mxCell>
        <mxCell id="UTV6f1B9EW_PD0q9mYSq-14" value="# clearEEGChart()" style="text;strokeColor=none;fillColor=none;align=left;verticalAlign=middle;spacingLeft=4;spacingRight=4;overflow=hidden;points=[[0,0.5],[1,0.5]];portConstraint=eastwest;rotatable=0;whiteSpace=wrap;html=1;" vertex="1" parent="PDaaazuxyIUYCQPAJg8h-4">
          <mxGeometry y="1590" width="320" height="30" as="geometry" />
        </mxCell>
        <mxCell id="UTV6f1B9EW_PD0q9mYSq-16" value="# PCOutput()" style="text;strokeColor=none;fillColor=none;align=left;verticalAlign=middle;spacingLeft=4;spacingRight=4;overflow=hidden;points=[[0,0.5],[1,0.5]];portConstraint=eastwest;rotatable=0;whiteSpace=wrap;html=1;" vertex="1" parent="PDaaazuxyIUYCQPAJg8h-4">
          <mxGeometry y="1620" width="320" height="30" as="geometry" />
        </mxCell>
        <mxCell id="PDaaazuxyIUYCQPAJg8h-76" value="# menuButtonPressed()" style="text;strokeColor=none;fillColor=none;align=left;verticalAlign=middle;spacingLeft=4;spacingRight=4;overflow=hidden;points=[[0,0.5],[1,0.5]];portConstraint=eastwest;rotatable=0;whiteSpace=wrap;html=1;" parent="PDaaazuxyIUYCQPAJg8h-4" vertex="1">
          <mxGeometry y="1650" width="320" height="30" as="geometry" />
        </mxCell>
        <mxCell id="PDaaazuxyIUYCQPAJg8h-74" value="# newSession()" style="text;strokeColor=none;fillColor=none;align=left;verticalAlign=middle;spacingLeft=4;spacingRight=4;overflow=hidden;points=[[0,0.5],[1,0.5]];portConstraint=eastwest;rotatable=0;whiteSpace=wrap;html=1;" parent="PDaaazuxyIUYCQPAJg8h-4" vertex="1">
          <mxGeometry y="1680" width="320" height="30" as="geometry" />
        </mxCell>
        <mxCell id="PDaaazuxyIUYCQPAJg8h-73" value="# sessionLog()" style="text;strokeColor=none;fillColor=none;align=left;verticalAlign=middle;spacingLeft=4;spacingRight=4;overflow=hidden;points=[[0,0.5],[1,0.5]];portConstraint=eastwest;rotatable=0;whiteSpace=wrap;html=1;" parent="PDaaazuxyIUYCQPAJg8h-4" vertex="1">
          <mxGeometry y="1710" width="320" height="30" as="geometry" />
        </mxCell>
        <mxCell id="PDaaazuxyIUYCQPAJg8h-90" value="# dateTimeSetting()" style="text;strokeColor=none;fillColor=none;align=left;verticalAlign=middle;spacingLeft=4;spacingRight=4;overflow=hidden;points=[[0,0.5],[1,0.5]];portConstraint=eastwest;rotatable=0;whiteSpace=wrap;html=1;" parent="PDaaazuxyIUYCQPAJg8h-4" vertex="1">
          <mxGeometry y="1740" width="320" height="30" as="geometry" />
        </mxCell>
        <mxCell id="PDaaazuxyIUYCQPAJg8h-91" value="# togglePowerSource()" style="text;strokeColor=none;fillColor=none;align=left;verticalAlign=middle;spacingLeft=4;spacingRight=4;overflow=hidden;points=[[0,0.5],[1,0.5]];portConstraint=eastwest;rotatable=0;whiteSpace=wrap;html=1;" parent="PDaaazuxyIUYCQPAJg8h-4" vertex="1">
          <mxGeometry y="1770" width="320" height="30" as="geometry" />
        </mxCell>
        <mxCell id="UTV6f1B9EW_PD0q9mYSq-17" value="# on_contactOnButton_clicked()" style="text;strokeColor=none;fillColor=none;align=left;verticalAlign=middle;spacingLeft=4;spacingRight=4;overflow=hidden;points=[[0,0.5],[1,0.5]];portConstraint=eastwest;rotatable=0;whiteSpace=wrap;html=1;" vertex="1" parent="PDaaazuxyIUYCQPAJg8h-4">
          <mxGeometry y="1800" width="320" height="30" as="geometry" />
        </mxCell>
        <mxCell id="PDaaazuxyIUYCQPAJg8h-92" value="handler" style="swimlane;fontStyle=0;childLayout=stackLayout;horizontal=1;startSize=30;horizontalStack=0;resizeParent=1;resizeParentMax=0;resizeLast=0;collapsible=1;marginBottom=0;whiteSpace=wrap;html=1;" parent="WIyWlLk6GJQsqaUBKTNV-1" vertex="1">
          <mxGeometry x="640" y="240" width="320" height="960" as="geometry" />
        </mxCell>
        <mxCell id="PDaaazuxyIUYCQPAJg8h-93" value="&lt;pre style=&quot;margin-top: 0px; margin-bottom: 0px;&quot;&gt;&lt;font style=&quot;font-size: 12px;&quot; face=&quot;Helvetica&quot;&gt;- bool inNewSession&lt;/font&gt;&lt;/pre&gt;" style="text;strokeColor=none;fillColor=none;align=left;verticalAlign=middle;spacingLeft=4;spacingRight=4;overflow=hidden;points=[[0,0.5],[1,0.5]];portConstraint=eastwest;rotatable=0;whiteSpace=wrap;html=1;" parent="PDaaazuxyIUYCQPAJg8h-92" vertex="1">
          <mxGeometry y="30" width="320" height="30" as="geometry" />
        </mxCell>
        <mxCell id="PDaaazuxyIUYCQPAJg8h-94" value="- bool system_on" style="text;strokeColor=none;fillColor=none;align=left;verticalAlign=middle;spacingLeft=4;spacingRight=4;overflow=hidden;points=[[0,0.5],[1,0.5]];portConstraint=eastwest;rotatable=0;whiteSpace=wrap;html=1;" parent="PDaaazuxyIUYCQPAJg8h-92" vertex="1">
          <mxGeometry y="60" width="320" height="30" as="geometry" />
        </mxCell>
        <mxCell id="PDaaazuxyIUYCQPAJg8h-95" value="- bool menuOn" style="text;strokeColor=none;fillColor=none;align=left;verticalAlign=middle;spacingLeft=4;spacingRight=4;overflow=hidden;points=[[0,0.5],[1,0.5]];portConstraint=eastwest;rotatable=0;whiteSpace=wrap;html=1;" parent="PDaaazuxyIUYCQPAJg8h-92" vertex="1">
          <mxGeometry y="90" width="320" height="30" as="geometry" />
        </mxCell>
        <mxCell id="PDaaazuxyIUYCQPAJg8h-96" value="- int menuPos" style="text;strokeColor=none;fillColor=none;align=left;verticalAlign=middle;spacingLeft=4;spacingRight=4;overflow=hidden;points=[[0,0.5],[1,0.5]];portConstraint=eastwest;rotatable=0;whiteSpace=wrap;html=1;" parent="PDaaazuxyIUYCQPAJg8h-92" vertex="1">
          <mxGeometry y="120" width="320" height="30" as="geometry" />
        </mxCell>
        <mxCell id="PDaaazuxyIUYCQPAJg8h-97" value="- int totalTimeOfTimer" style="text;strokeColor=none;fillColor=none;align=left;verticalAlign=middle;spacingLeft=4;spacingRight=4;overflow=hidden;points=[[0,0.5],[1,0.5]];portConstraint=eastwest;rotatable=0;whiteSpace=wrap;html=1;" parent="PDaaazuxyIUYCQPAJg8h-92" vertex="1">
          <mxGeometry y="150" width="320" height="30" as="geometry" />
        </mxCell>
        <mxCell id="PDaaazuxyIUYCQPAJg8h-98" value="- bool isConnected" style="text;strokeColor=none;fillColor=none;align=left;verticalAlign=middle;spacingLeft=4;spacingRight=4;overflow=hidden;points=[[0,0.5],[1,0.5]];portConstraint=eastwest;rotatable=0;whiteSpace=wrap;html=1;" parent="PDaaazuxyIUYCQPAJg8h-92" vertex="1">
          <mxGeometry y="180" width="320" height="30" as="geometry" />
        </mxCell>
        <mxCell id="PDaaazuxyIUYCQPAJg8h-99" value="- bool pauseButton" style="text;strokeColor=none;fillColor=none;align=left;verticalAlign=middle;spacingLeft=4;spacingRight=4;overflow=hidden;points=[[0,0.5],[1,0.5]];portConstraint=eastwest;rotatable=0;whiteSpace=wrap;html=1;" parent="PDaaazuxyIUYCQPAJg8h-92" vertex="1">
          <mxGeometry y="210" width="320" height="30" as="geometry" />
        </mxCell>
        <mxCell id="PDaaazuxyIUYCQPAJg8h-100" value="- bool connectedToPowerSource" style="text;strokeColor=none;fillColor=none;align=left;verticalAlign=middle;spacingLeft=4;spacingRight=4;overflow=hidden;points=[[0,0.5],[1,0.5]];portConstraint=eastwest;rotatable=0;whiteSpace=wrap;html=1;" parent="PDaaazuxyIUYCQPAJg8h-92" vertex="1">
          <mxGeometry y="240" width="320" height="30" as="geometry" />
        </mxCell>
        <mxCell id="PDaaazuxyIUYCQPAJg8h-101" value="- bool sessionLogOn" style="text;strokeColor=none;fillColor=none;align=left;verticalAlign=middle;spacingLeft=4;spacingRight=4;overflow=hidden;points=[[0,0.5],[1,0.5]];portConstraint=eastwest;rotatable=0;whiteSpace=wrap;html=1;" parent="PDaaazuxyIUYCQPAJg8h-92" vertex="1">
          <mxGeometry y="270" width="320" height="30" as="geometry" />
        </mxCell>
        <mxCell id="PDaaazuxyIUYCQPAJg8h-142" value="" style="endArrow=none;html=1;rounded=0;" parent="PDaaazuxyIUYCQPAJg8h-92" edge="1">
          <mxGeometry width="50" height="50" relative="1" as="geometry">
            <mxPoint y="300" as="sourcePoint" />
            <mxPoint x="320" y="300" as="targetPoint" />
          </mxGeometry>
        </mxCell>
        <mxCell id="PDaaazuxyIUYCQPAJg8h-103" value="# Handler(bool system_on, QDate date, QTime time)" style="text;strokeColor=none;fillColor=none;align=left;verticalAlign=middle;spacingLeft=4;spacingRight=4;overflow=hidden;points=[[0,0.5],[1,0.5]];portConstraint=eastwest;rotatable=0;whiteSpace=wrap;html=1;" parent="PDaaazuxyIUYCQPAJg8h-92" vertex="1">
          <mxGeometry y="300" width="320" height="30" as="geometry" />
        </mxCell>
        <mxCell id="PDaaazuxyIUYCQPAJg8h-104" value="# setSystemOn(bool set)" style="text;strokeColor=none;fillColor=none;align=left;verticalAlign=middle;spacingLeft=4;spacingRight=4;overflow=hidden;points=[[0,0.5],[1,0.5]];portConstraint=eastwest;rotatable=0;whiteSpace=wrap;html=1;" parent="PDaaazuxyIUYCQPAJg8h-92" vertex="1">
          <mxGeometry y="330" width="320" height="30" as="geometry" />
        </mxCell>
        <mxCell id="PDaaazuxyIUYCQPAJg8h-105" value="# getSystemOn() : bool" style="text;strokeColor=none;fillColor=none;align=left;verticalAlign=middle;spacingLeft=4;spacingRight=4;overflow=hidden;points=[[0,0.5],[1,0.5]];portConstraint=eastwest;rotatable=0;whiteSpace=wrap;html=1;" parent="PDaaazuxyIUYCQPAJg8h-92" vertex="1">
          <mxGeometry y="360" width="320" height="30" as="geometry" />
        </mxCell>
        <mxCell id="PDaaazuxyIUYCQPAJg8h-115" value="# newMenuPos(const QString &amp;amp;str) : int" style="text;strokeColor=none;fillColor=none;align=left;verticalAlign=middle;spacingLeft=4;spacingRight=4;overflow=hidden;points=[[0,0.5],[1,0.5]];portConstraint=eastwest;rotatable=0;whiteSpace=wrap;html=1;" parent="PDaaazuxyIUYCQPAJg8h-92" vertex="1">
          <mxGeometry y="390" width="320" height="30" as="geometry" />
        </mxCell>
        <mxCell id="PDaaazuxyIUYCQPAJg8h-116" value="# getMenuPos() : int" style="text;strokeColor=none;fillColor=none;align=left;verticalAlign=middle;spacingLeft=4;spacingRight=4;overflow=hidden;points=[[0,0.5],[1,0.5]];portConstraint=eastwest;rotatable=0;whiteSpace=wrap;html=1;" parent="PDaaazuxyIUYCQPAJg8h-92" vertex="1">
          <mxGeometry y="420" width="320" height="30" as="geometry" />
        </mxCell>
        <mxCell id="PDaaazuxyIUYCQPAJg8h-117" value="# setMenuOn(bool b)" style="text;strokeColor=none;fillColor=none;align=left;verticalAlign=middle;spacingLeft=4;spacingRight=4;overflow=hidden;points=[[0,0.5],[1,0.5]];portConstraint=eastwest;rotatable=0;whiteSpace=wrap;html=1;" parent="PDaaazuxyIUYCQPAJg8h-92" vertex="1">
          <mxGeometry y="450" width="320" height="30" as="geometry" />
        </mxCell>
        <mxCell id="PDaaazuxyIUYCQPAJg8h-118" value="# getMenuOn() : bool" style="text;strokeColor=none;fillColor=none;align=left;verticalAlign=middle;spacingLeft=4;spacingRight=4;overflow=hidden;points=[[0,0.5],[1,0.5]];portConstraint=eastwest;rotatable=0;whiteSpace=wrap;html=1;" parent="PDaaazuxyIUYCQPAJg8h-92" vertex="1">
          <mxGeometry y="480" width="320" height="30" as="geometry" />
        </mxCell>
        <mxCell id="PDaaazuxyIUYCQPAJg8h-119" value="# setMenuPosToDefault()" style="text;strokeColor=none;fillColor=none;align=left;verticalAlign=middle;spacingLeft=4;spacingRight=4;overflow=hidden;points=[[0,0.5],[1,0.5]];portConstraint=eastwest;rotatable=0;whiteSpace=wrap;html=1;" parent="PDaaazuxyIUYCQPAJg8h-92" vertex="1">
          <mxGeometry y="510" width="320" height="30" as="geometry" />
        </mxCell>
        <mxCell id="PDaaazuxyIUYCQPAJg8h-120" value="# setAllSettingToDefault()" style="text;strokeColor=none;fillColor=none;align=left;verticalAlign=middle;spacingLeft=4;spacingRight=4;overflow=hidden;points=[[0,0.5],[1,0.5]];portConstraint=eastwest;rotatable=0;whiteSpace=wrap;html=1;" parent="PDaaazuxyIUYCQPAJg8h-92" vertex="1">
          <mxGeometry y="540" width="320" height="30" as="geometry" />
        </mxCell>
        <mxCell id="PDaaazuxyIUYCQPAJg8h-121" value="# setInNewSession(bool n)" style="text;strokeColor=none;fillColor=none;align=left;verticalAlign=middle;spacingLeft=4;spacingRight=4;overflow=hidden;points=[[0,0.5],[1,0.5]];portConstraint=eastwest;rotatable=0;whiteSpace=wrap;html=1;" parent="PDaaazuxyIUYCQPAJg8h-92" vertex="1">
          <mxGeometry y="570" width="320" height="30" as="geometry" />
        </mxCell>
        <mxCell id="PDaaazuxyIUYCQPAJg8h-122" value="# getInNewSession() : bool" style="text;strokeColor=none;fillColor=none;align=left;verticalAlign=middle;spacingLeft=4;spacingRight=4;overflow=hidden;points=[[0,0.5],[1,0.5]];portConstraint=eastwest;rotatable=0;whiteSpace=wrap;html=1;" parent="PDaaazuxyIUYCQPAJg8h-92" vertex="1">
          <mxGeometry y="600" width="320" height="30" as="geometry" />
        </mxCell>
        <mxCell id="PDaaazuxyIUYCQPAJg8h-123" value="# getTotalTimeOfTimer() : int" style="text;strokeColor=none;fillColor=none;align=left;verticalAlign=middle;spacingLeft=4;spacingRight=4;overflow=hidden;points=[[0,0.5],[1,0.5]];portConstraint=eastwest;rotatable=0;whiteSpace=wrap;html=1;" parent="PDaaazuxyIUYCQPAJg8h-92" vertex="1">
          <mxGeometry y="630" width="320" height="30" as="geometry" />
        </mxCell>
        <mxCell id="PDaaazuxyIUYCQPAJg8h-124" value="# setIsConnected(bool b)" style="text;strokeColor=none;fillColor=none;align=left;verticalAlign=middle;spacingLeft=4;spacingRight=4;overflow=hidden;points=[[0,0.5],[1,0.5]];portConstraint=eastwest;rotatable=0;whiteSpace=wrap;html=1;" parent="PDaaazuxyIUYCQPAJg8h-92" vertex="1">
          <mxGeometry y="660" width="320" height="30" as="geometry" />
        </mxCell>
        <mxCell id="PDaaazuxyIUYCQPAJg8h-125" value="# getIsConnected() : bool" style="text;strokeColor=none;fillColor=none;align=left;verticalAlign=middle;spacingLeft=4;spacingRight=4;overflow=hidden;points=[[0,0.5],[1,0.5]];portConstraint=eastwest;rotatable=0;whiteSpace=wrap;html=1;" parent="PDaaazuxyIUYCQPAJg8h-92" vertex="1">
          <mxGeometry y="690" width="320" height="30" as="geometry" />
        </mxCell>
        <mxCell id="PDaaazuxyIUYCQPAJg8h-126" value="# setPauseButton(bool b)" style="text;strokeColor=none;fillColor=none;align=left;verticalAlign=middle;spacingLeft=4;spacingRight=4;overflow=hidden;points=[[0,0.5],[1,0.5]];portConstraint=eastwest;rotatable=0;whiteSpace=wrap;html=1;" parent="PDaaazuxyIUYCQPAJg8h-92" vertex="1">
          <mxGeometry y="720" width="320" height="30" as="geometry" />
        </mxCell>
        <mxCell id="PDaaazuxyIUYCQPAJg8h-127" value="# getPauseButton : bool" style="text;strokeColor=none;fillColor=none;align=left;verticalAlign=middle;spacingLeft=4;spacingRight=4;overflow=hidden;points=[[0,0.5],[1,0.5]];portConstraint=eastwest;rotatable=0;whiteSpace=wrap;html=1;" parent="PDaaazuxyIUYCQPAJg8h-92" vertex="1">
          <mxGeometry y="750" width="320" height="30" as="geometry" />
        </mxCell>
        <mxCell id="PDaaazuxyIUYCQPAJg8h-128" value="# setConnectedToPowerSource(bool connected)" style="text;strokeColor=none;fillColor=none;align=left;verticalAlign=middle;spacingLeft=4;spacingRight=4;overflow=hidden;points=[[0,0.5],[1,0.5]];portConstraint=eastwest;rotatable=0;whiteSpace=wrap;html=1;" parent="PDaaazuxyIUYCQPAJg8h-92" vertex="1">
          <mxGeometry y="780" width="320" height="30" as="geometry" />
        </mxCell>
        <mxCell id="PDaaazuxyIUYCQPAJg8h-129" value="# isConnectedToPowerSource : bool" style="text;strokeColor=none;fillColor=none;align=left;verticalAlign=middle;spacingLeft=4;spacingRight=4;overflow=hidden;points=[[0,0.5],[1,0.5]];portConstraint=eastwest;rotatable=0;whiteSpace=wrap;html=1;" parent="PDaaazuxyIUYCQPAJg8h-92" vertex="1">
          <mxGeometry y="810" width="320" height="30" as="geometry" />
        </mxCell>
        <mxCell id="PDaaazuxyIUYCQPAJg8h-130" value="# getSessionLogOn() : bool" style="text;strokeColor=none;fillColor=none;align=left;verticalAlign=middle;spacingLeft=4;spacingRight=4;overflow=hidden;points=[[0,0.5],[1,0.5]];portConstraint=eastwest;rotatable=0;whiteSpace=wrap;html=1;" parent="PDaaazuxyIUYCQPAJg8h-92" vertex="1">
          <mxGeometry y="840" width="320" height="30" as="geometry" />
        </mxCell>
        <mxCell id="PDaaazuxyIUYCQPAJg8h-131" value="# setSessionLogOn(bool b)" style="text;strokeColor=none;fillColor=none;align=left;verticalAlign=middle;spacingLeft=4;spacingRight=4;overflow=hidden;points=[[0,0.5],[1,0.5]];portConstraint=eastwest;rotatable=0;whiteSpace=wrap;html=1;" parent="PDaaazuxyIUYCQPAJg8h-92" vertex="1">
          <mxGeometry y="870" width="320" height="30" as="geometry" />
        </mxCell>
        <mxCell id="PDaaazuxyIUYCQPAJg8h-132" value="# menuPosDown() : int" style="text;strokeColor=none;fillColor=none;align=left;verticalAlign=middle;spacingLeft=4;spacingRight=4;overflow=hidden;points=[[0,0.5],[1,0.5]];portConstraint=eastwest;rotatable=0;whiteSpace=wrap;html=1;" parent="PDaaazuxyIUYCQPAJg8h-92" vertex="1">
          <mxGeometry y="900" width="320" height="30" as="geometry" />
        </mxCell>
        <mxCell id="PDaaazuxyIUYCQPAJg8h-133" value="# menuPosUp() : int" style="text;strokeColor=none;fillColor=none;align=left;verticalAlign=middle;spacingLeft=4;spacingRight=4;overflow=hidden;points=[[0,0.5],[1,0.5]];portConstraint=eastwest;rotatable=0;whiteSpace=wrap;html=1;" parent="PDaaazuxyIUYCQPAJg8h-92" vertex="1">
          <mxGeometry y="930" width="320" height="30" as="geometry" />
        </mxCell>
        <mxCell id="PDaaazuxyIUYCQPAJg8h-143" value="device_settings" style="swimlane;fontStyle=0;childLayout=stackLayout;horizontal=1;startSize=30;horizontalStack=0;resizeParent=1;resizeParentMax=0;resizeLast=0;collapsible=1;marginBottom=0;whiteSpace=wrap;html=1;" parent="WIyWlLk6GJQsqaUBKTNV-1" vertex="1">
          <mxGeometry x="1090" y="240" width="320" height="330" as="geometry" />
        </mxCell>
        <mxCell id="PDaaazuxyIUYCQPAJg8h-144" value="&lt;pre style=&quot;margin-top: 0px; margin-bottom: 0px;&quot;&gt;&lt;font style=&quot;font-size: 12px;&quot; face=&quot;Helvetica&quot;&gt;- int year&lt;/font&gt;&lt;/pre&gt;" style="text;strokeColor=none;fillColor=none;align=left;verticalAlign=middle;spacingLeft=4;spacingRight=4;overflow=hidden;points=[[0,0.5],[1,0.5]];portConstraint=eastwest;rotatable=0;whiteSpace=wrap;html=1;" parent="PDaaazuxyIUYCQPAJg8h-143" vertex="1">
          <mxGeometry y="30" width="320" height="30" as="geometry" />
        </mxCell>
        <mxCell id="PDaaazuxyIUYCQPAJg8h-145" value="- int month" style="text;strokeColor=none;fillColor=none;align=left;verticalAlign=middle;spacingLeft=4;spacingRight=4;overflow=hidden;points=[[0,0.5],[1,0.5]];portConstraint=eastwest;rotatable=0;whiteSpace=wrap;html=1;" parent="PDaaazuxyIUYCQPAJg8h-143" vertex="1">
          <mxGeometry y="60" width="320" height="30" as="geometry" />
        </mxCell>
        <mxCell id="PDaaazuxyIUYCQPAJg8h-146" value="- int day" style="text;strokeColor=none;fillColor=none;align=left;verticalAlign=middle;spacingLeft=4;spacingRight=4;overflow=hidden;points=[[0,0.5],[1,0.5]];portConstraint=eastwest;rotatable=0;whiteSpace=wrap;html=1;" parent="PDaaazuxyIUYCQPAJg8h-143" vertex="1">
          <mxGeometry y="90" width="320" height="30" as="geometry" />
        </mxCell>
        <mxCell id="PDaaazuxyIUYCQPAJg8h-147" value="- int hour" style="text;strokeColor=none;fillColor=none;align=left;verticalAlign=middle;spacingLeft=4;spacingRight=4;overflow=hidden;points=[[0,0.5],[1,0.5]];portConstraint=eastwest;rotatable=0;whiteSpace=wrap;html=1;" parent="PDaaazuxyIUYCQPAJg8h-143" vertex="1">
          <mxGeometry y="120" width="320" height="30" as="geometry" />
        </mxCell>
        <mxCell id="PDaaazuxyIUYCQPAJg8h-148" value="- int minute" style="text;strokeColor=none;fillColor=none;align=left;verticalAlign=middle;spacingLeft=4;spacingRight=4;overflow=hidden;points=[[0,0.5],[1,0.5]];portConstraint=eastwest;rotatable=0;whiteSpace=wrap;html=1;" parent="PDaaazuxyIUYCQPAJg8h-143" vertex="1">
          <mxGeometry y="150" width="320" height="30" as="geometry" />
        </mxCell>
        <mxCell id="PDaaazuxyIUYCQPAJg8h-149" value="- int second" style="text;strokeColor=none;fillColor=none;align=left;verticalAlign=middle;spacingLeft=4;spacingRight=4;overflow=hidden;points=[[0,0.5],[1,0.5]];portConstraint=eastwest;rotatable=0;whiteSpace=wrap;html=1;" parent="PDaaazuxyIUYCQPAJg8h-143" vertex="1">
          <mxGeometry y="180" width="320" height="30" as="geometry" />
        </mxCell>
        <mxCell id="PDaaazuxyIUYCQPAJg8h-176" value="" style="endArrow=none;html=1;rounded=0;" parent="PDaaazuxyIUYCQPAJg8h-143" edge="1">
          <mxGeometry width="50" height="50" relative="1" as="geometry">
            <mxPoint y="210" as="sourcePoint" />
            <mxPoint x="320" y="210" as="targetPoint" />
          </mxGeometry>
        </mxCell>
        <mxCell id="PDaaazuxyIUYCQPAJg8h-154" value="# DeviceSettings()" style="text;strokeColor=none;fillColor=none;align=left;verticalAlign=middle;spacingLeft=4;spacingRight=4;overflow=hidden;points=[[0,0.5],[1,0.5]];portConstraint=eastwest;rotatable=0;whiteSpace=wrap;html=1;" parent="PDaaazuxyIUYCQPAJg8h-143" vertex="1">
          <mxGeometry y="210" width="320" height="30" as="geometry" />
        </mxCell>
        <mxCell id="PDaaazuxyIUYCQPAJg8h-155" value="# setDate(int year, int month, int day)" style="text;strokeColor=none;fillColor=none;align=left;verticalAlign=middle;spacingLeft=4;spacingRight=4;overflow=hidden;points=[[0,0.5],[1,0.5]];portConstraint=eastwest;rotatable=0;whiteSpace=wrap;html=1;" parent="PDaaazuxyIUYCQPAJg8h-143" vertex="1">
          <mxGeometry y="240" width="320" height="30" as="geometry" />
        </mxCell>
        <mxCell id="PDaaazuxyIUYCQPAJg8h-156" value="# setTime(int hour, int minute, int second)" style="text;strokeColor=none;fillColor=none;align=left;verticalAlign=middle;spacingLeft=4;spacingRight=4;overflow=hidden;points=[[0,0.5],[1,0.5]];portConstraint=eastwest;rotatable=0;whiteSpace=wrap;html=1;" parent="PDaaazuxyIUYCQPAJg8h-143" vertex="1">
          <mxGeometry y="270" width="320" height="30" as="geometry" />
        </mxCell>
        <mxCell id="PDaaazuxyIUYCQPAJg8h-157" value="# simulateConnectionLossAndReestablishement()" style="text;strokeColor=none;fillColor=none;align=left;verticalAlign=middle;spacingLeft=4;spacingRight=4;overflow=hidden;points=[[0,0.5],[1,0.5]];portConstraint=eastwest;rotatable=0;whiteSpace=wrap;html=1;" parent="PDaaazuxyIUYCQPAJg8h-143" vertex="1">
          <mxGeometry y="300" width="320" height="30" as="geometry" />
        </mxCell>
        <mxCell id="UTV6f1B9EW_PD0q9mYSq-48" style="edgeStyle=orthogonalEdgeStyle;rounded=0;orthogonalLoop=1;jettySize=auto;html=1;entryX=0.372;entryY=1.11;entryDx=0;entryDy=0;entryPerimeter=0;" edge="1" parent="WIyWlLk6GJQsqaUBKTNV-1" source="PDaaazuxyIUYCQPAJg8h-195" target="PDaaazuxyIUYCQPAJg8h-219">
          <mxGeometry relative="1" as="geometry">
            <mxPoint x="2080" y="470" as="targetPoint" />
            <Array as="points">
              <mxPoint x="1680" y="550" />
              <mxPoint x="2040" y="550" />
              <mxPoint x="2040" y="470" />
            </Array>
          </mxGeometry>
        </mxCell>
        <mxCell id="PDaaazuxyIUYCQPAJg8h-195" value="SessionData" style="swimlane;fontStyle=0;childLayout=stackLayout;horizontal=1;startSize=30;horizontalStack=0;resizeParent=1;resizeParentMax=0;resizeLast=0;collapsible=1;marginBottom=0;whiteSpace=wrap;html=1;" parent="WIyWlLk6GJQsqaUBKTNV-1" vertex="1">
          <mxGeometry x="1520" y="240" width="320" height="210" as="geometry" />
        </mxCell>
        <mxCell id="PDaaazuxyIUYCQPAJg8h-196" value="&lt;pre style=&quot;margin-top: 0px; margin-bottom: 0px;&quot;&gt;&lt;font style=&quot;font-size: 12px;&quot; face=&quot;Helvetica&quot;&gt;- QDateTime sessionStartTime&lt;/font&gt;&lt;/pre&gt;" style="text;strokeColor=none;fillColor=none;align=left;verticalAlign=middle;spacingLeft=4;spacingRight=4;overflow=hidden;points=[[0,0.5],[1,0.5]];portConstraint=eastwest;rotatable=0;whiteSpace=wrap;html=1;" parent="PDaaazuxyIUYCQPAJg8h-195" vertex="1">
          <mxGeometry y="30" width="320" height="30" as="geometry" />
        </mxCell>
        <mxCell id="UTV6f1B9EW_PD0q9mYSq-22" value="&lt;pre style=&quot;margin-top: 0px; margin-bottom: 0px;&quot;&gt;&lt;font style=&quot;font-size: 12px;&quot; face=&quot;Helvetica&quot;&gt;- QDateTime sessionEndTime&lt;/font&gt;&lt;/pre&gt;" style="text;strokeColor=none;fillColor=none;align=left;verticalAlign=middle;spacingLeft=4;spacingRight=4;overflow=hidden;points=[[0,0.5],[1,0.5]];portConstraint=eastwest;rotatable=0;whiteSpace=wrap;html=1;" vertex="1" parent="PDaaazuxyIUYCQPAJg8h-195">
          <mxGeometry y="60" width="320" height="30" as="geometry" />
        </mxCell>
        <mxCell id="UTV6f1B9EW_PD0q9mYSq-26" value="" style="endArrow=none;html=1;rounded=0;" edge="1" parent="PDaaazuxyIUYCQPAJg8h-195">
          <mxGeometry width="50" height="50" relative="1" as="geometry">
            <mxPoint y="90" as="sourcePoint" />
            <mxPoint x="320" y="90" as="targetPoint" />
          </mxGeometry>
        </mxCell>
        <mxCell id="PDaaazuxyIUYCQPAJg8h-206" value="# SessionData(const QDateTime&amp;amp; startTime)" style="text;strokeColor=none;fillColor=none;align=left;verticalAlign=middle;spacingLeft=4;spacingRight=4;overflow=hidden;points=[[0,0.5],[1,0.5]];portConstraint=eastwest;rotatable=0;whiteSpace=wrap;html=1;" parent="PDaaazuxyIUYCQPAJg8h-195" vertex="1">
          <mxGeometry y="90" width="320" height="30" as="geometry" />
        </mxCell>
        <mxCell id="PDaaazuxyIUYCQPAJg8h-207" value="# getSessionTime() : QDateTime" style="text;strokeColor=none;fillColor=none;align=left;verticalAlign=middle;spacingLeft=4;spacingRight=4;overflow=hidden;points=[[0,0.5],[1,0.5]];portConstraint=eastwest;rotatable=0;whiteSpace=wrap;html=1;" parent="PDaaazuxyIUYCQPAJg8h-195" vertex="1">
          <mxGeometry y="120" width="320" height="30" as="geometry" />
        </mxCell>
        <mxCell id="UTV6f1B9EW_PD0q9mYSq-23" value="# getSessionEndTime() : QDateTime" style="text;strokeColor=none;fillColor=none;align=left;verticalAlign=middle;spacingLeft=4;spacingRight=4;overflow=hidden;points=[[0,0.5],[1,0.5]];portConstraint=eastwest;rotatable=0;whiteSpace=wrap;html=1;" vertex="1" parent="PDaaazuxyIUYCQPAJg8h-195">
          <mxGeometry y="150" width="320" height="30" as="geometry" />
        </mxCell>
        <mxCell id="PDaaazuxyIUYCQPAJg8h-208" value="#&amp;nbsp; print()" style="text;strokeColor=none;fillColor=none;align=left;verticalAlign=middle;spacingLeft=4;spacingRight=4;overflow=hidden;points=[[0,0.5],[1,0.5]];portConstraint=eastwest;rotatable=0;whiteSpace=wrap;html=1;" parent="PDaaazuxyIUYCQPAJg8h-195" vertex="1">
          <mxGeometry y="180" width="320" height="30" as="geometry" />
        </mxCell>
        <mxCell id="UTV6f1B9EW_PD0q9mYSq-49" style="edgeStyle=orthogonalEdgeStyle;rounded=0;orthogonalLoop=1;jettySize=auto;html=1;entryX=0.747;entryY=1.281;entryDx=0;entryDy=0;entryPerimeter=0;" edge="1" parent="WIyWlLk6GJQsqaUBKTNV-1" source="PDaaazuxyIUYCQPAJg8h-210" target="PDaaazuxyIUYCQPAJg8h-208">
          <mxGeometry relative="1" as="geometry">
            <mxPoint x="1920" y="520" as="targetPoint" />
            <Array as="points">
              <mxPoint x="1980" y="490" />
              <mxPoint x="1760" y="490" />
              <mxPoint x="1760" y="458" />
            </Array>
          </mxGeometry>
        </mxCell>
        <mxCell id="PDaaazuxyIUYCQPAJg8h-210" value="session_log" style="swimlane;fontStyle=0;childLayout=stackLayout;horizontal=1;startSize=30;horizontalStack=0;resizeParent=1;resizeParentMax=0;resizeLast=0;collapsible=1;marginBottom=0;whiteSpace=wrap;html=1;" parent="WIyWlLk6GJQsqaUBKTNV-1" vertex="1">
          <mxGeometry x="1920" y="240" width="320" height="210" as="geometry" />
        </mxCell>
        <mxCell id="PDaaazuxyIUYCQPAJg8h-211" value="&lt;pre style=&quot;margin-top: 0px; margin-bottom: 0px;&quot;&gt;&lt;br&gt;&lt;/pre&gt;" style="text;strokeColor=none;fillColor=none;align=left;verticalAlign=middle;spacingLeft=4;spacingRight=4;overflow=hidden;points=[[0,0.5],[1,0.5]];portConstraint=eastwest;rotatable=0;whiteSpace=wrap;html=1;" parent="PDaaazuxyIUYCQPAJg8h-210" vertex="1">
          <mxGeometry y="30" width="320" height="30" as="geometry" />
        </mxCell>
        <mxCell id="PDaaazuxyIUYCQPAJg8h-220" value="" style="endArrow=none;html=1;rounded=0;" parent="PDaaazuxyIUYCQPAJg8h-210" edge="1">
          <mxGeometry width="50" height="50" relative="1" as="geometry">
            <mxPoint x="1" y="60" as="sourcePoint" />
            <mxPoint x="321" y="60" as="targetPoint" />
          </mxGeometry>
        </mxCell>
        <mxCell id="PDaaazuxyIUYCQPAJg8h-214" value="# session_log()" style="text;strokeColor=none;fillColor=none;align=left;verticalAlign=middle;spacingLeft=4;spacingRight=4;overflow=hidden;points=[[0,0.5],[1,0.5]];portConstraint=eastwest;rotatable=0;whiteSpace=wrap;html=1;" parent="PDaaazuxyIUYCQPAJg8h-210" vertex="1">
          <mxGeometry y="60" width="320" height="30" as="geometry" />
        </mxCell>
        <mxCell id="PDaaazuxyIUYCQPAJg8h-215" value="# ~session_log()" style="text;strokeColor=none;fillColor=none;align=left;verticalAlign=middle;spacingLeft=4;spacingRight=4;overflow=hidden;points=[[0,0.5],[1,0.5]];portConstraint=eastwest;rotatable=0;whiteSpace=wrap;html=1;" parent="PDaaazuxyIUYCQPAJg8h-210" vertex="1">
          <mxGeometry y="90" width="320" height="30" as="geometry" />
        </mxCell>
        <mxCell id="PDaaazuxyIUYCQPAJg8h-217" value="# addSession(const QDateTime&amp;amp; time)" style="text;strokeColor=none;fillColor=none;align=left;verticalAlign=middle;spacingLeft=4;spacingRight=4;overflow=hidden;points=[[0,0.5],[1,0.5]];portConstraint=eastwest;rotatable=0;whiteSpace=wrap;html=1;" parent="PDaaazuxyIUYCQPAJg8h-210" vertex="1">
          <mxGeometry y="120" width="320" height="30" as="geometry" />
        </mxCell>
        <mxCell id="PDaaazuxyIUYCQPAJg8h-218" value="# getSessionHistory() : vector&amp;lt;SessionData*&amp;gt;" style="text;strokeColor=none;fillColor=none;align=left;verticalAlign=middle;spacingLeft=4;spacingRight=4;overflow=hidden;points=[[0,0.5],[1,0.5]];portConstraint=eastwest;rotatable=0;whiteSpace=wrap;html=1;" parent="PDaaazuxyIUYCQPAJg8h-210" vertex="1">
          <mxGeometry y="150" width="320" height="30" as="geometry" />
        </mxCell>
        <mxCell id="PDaaazuxyIUYCQPAJg8h-219" value="# void print()" style="text;strokeColor=none;fillColor=none;align=left;verticalAlign=middle;spacingLeft=4;spacingRight=4;overflow=hidden;points=[[0,0.5],[1,0.5]];portConstraint=eastwest;rotatable=0;whiteSpace=wrap;html=1;" parent="PDaaazuxyIUYCQPAJg8h-210" vertex="1">
          <mxGeometry y="180" width="320" height="30" as="geometry" />
        </mxCell>
        <mxCell id="UTV6f1B9EW_PD0q9mYSq-51" style="edgeStyle=orthogonalEdgeStyle;rounded=0;orthogonalLoop=1;jettySize=auto;html=1;entryX=-0.023;entryY=1.653;entryDx=0;entryDy=0;entryPerimeter=0;" edge="1" parent="WIyWlLk6GJQsqaUBKTNV-1" source="PDaaazuxyIUYCQPAJg8h-221" target="UTV6f1B9EW_PD0q9mYSq-17">
          <mxGeometry relative="1" as="geometry">
            <mxPoint x="190" y="2310" as="targetPoint" />
            <Array as="points">
              <mxPoint x="3280" y="2420" />
              <mxPoint x="233" y="2420" />
            </Array>
          </mxGeometry>
        </mxCell>
        <mxCell id="PDaaazuxyIUYCQPAJg8h-221" value="User" style="swimlane;fontStyle=0;childLayout=stackLayout;horizontal=1;startSize=30;horizontalStack=0;resizeParent=1;resizeParentMax=0;resizeLast=0;collapsible=1;marginBottom=0;whiteSpace=wrap;html=1;" parent="WIyWlLk6GJQsqaUBKTNV-1" vertex="1">
          <mxGeometry x="3120" y="240" width="320" height="60" as="geometry" />
        </mxCell>
        <mxCell id="PDaaazuxyIUYCQPAJg8h-222" value="&lt;pre style=&quot;margin-top: 0px; margin-bottom: 0px;&quot;&gt;&lt;br&gt;&lt;/pre&gt;" style="text;strokeColor=none;fillColor=none;align=left;verticalAlign=middle;spacingLeft=4;spacingRight=4;overflow=hidden;points=[[0,0.5],[1,0.5]];portConstraint=eastwest;rotatable=0;whiteSpace=wrap;html=1;" parent="PDaaazuxyIUYCQPAJg8h-221" vertex="1">
          <mxGeometry y="30" width="320" height="30" as="geometry" />
        </mxCell>
        <mxCell id="PDaaazuxyIUYCQPAJg8h-223" value="" style="endArrow=none;html=1;rounded=0;" parent="PDaaazuxyIUYCQPAJg8h-221" edge="1">
          <mxGeometry width="50" height="50" relative="1" as="geometry">
            <mxPoint x="1" y="60" as="sourcePoint" />
            <mxPoint x="321" y="60" as="targetPoint" />
          </mxGeometry>
        </mxCell>
        <mxCell id="PDaaazuxyIUYCQPAJg8h-275" value="&lt;b&gt;&lt;font style=&quot;font-size: 69px;&quot;&gt;UML Class Diagram&lt;/font&gt;&lt;/b&gt;" style="text;strokeColor=none;align=center;fillColor=none;html=1;verticalAlign=middle;whiteSpace=wrap;rounded=0;" parent="WIyWlLk6GJQsqaUBKTNV-1" vertex="1">
          <mxGeometry x="1540" y="110" width="780" height="30" as="geometry" />
        </mxCell>
        <mxCell id="UTV6f1B9EW_PD0q9mYSq-46" style="edgeStyle=orthogonalEdgeStyle;rounded=0;orthogonalLoop=1;jettySize=auto;html=1;entryX=0.084;entryY=1.253;entryDx=0;entryDy=0;entryPerimeter=0;" edge="1" parent="WIyWlLk6GJQsqaUBKTNV-1" source="UTV6f1B9EW_PD0q9mYSq-27" target="UTV6f1B9EW_PD0q9mYSq-39">
          <mxGeometry relative="1" as="geometry">
            <mxPoint x="2630" y="500" as="targetPoint" />
            <Array as="points">
              <mxPoint x="2570" y="460" />
              <mxPoint x="2747" y="460" />
            </Array>
          </mxGeometry>
        </mxCell>
        <mxCell id="UTV6f1B9EW_PD0q9mYSq-27" value="waveform_generator" style="swimlane;fontStyle=0;childLayout=stackLayout;horizontal=1;startSize=30;horizontalStack=0;resizeParent=1;resizeParentMax=0;resizeLast=0;collapsible=1;marginBottom=0;whiteSpace=wrap;html=1;" vertex="1" parent="WIyWlLk6GJQsqaUBKTNV-1">
          <mxGeometry x="2320" y="240" width="320" height="180" as="geometry" />
        </mxCell>
        <mxCell id="UTV6f1B9EW_PD0q9mYSq-28" value="&lt;pre style=&quot;margin-top: 0px; margin-bottom: 0px;&quot;&gt;&lt;br&gt;&lt;/pre&gt;" style="text;strokeColor=none;fillColor=none;align=left;verticalAlign=middle;spacingLeft=4;spacingRight=4;overflow=hidden;points=[[0,0.5],[1,0.5]];portConstraint=eastwest;rotatable=0;whiteSpace=wrap;html=1;" vertex="1" parent="UTV6f1B9EW_PD0q9mYSq-27">
          <mxGeometry y="30" width="320" height="30" as="geometry" />
        </mxCell>
        <mxCell id="UTV6f1B9EW_PD0q9mYSq-29" value="" style="endArrow=none;html=1;rounded=0;" edge="1" parent="UTV6f1B9EW_PD0q9mYSq-27">
          <mxGeometry width="50" height="50" relative="1" as="geometry">
            <mxPoint x="1" y="60" as="sourcePoint" />
            <mxPoint x="321" y="60" as="targetPoint" />
          </mxGeometry>
        </mxCell>
        <mxCell id="UTV6f1B9EW_PD0q9mYSq-30" value="# WaveformGenerator()" style="text;strokeColor=none;fillColor=none;align=left;verticalAlign=middle;spacingLeft=4;spacingRight=4;overflow=hidden;points=[[0,0.5],[1,0.5]];portConstraint=eastwest;rotatable=0;whiteSpace=wrap;html=1;" vertex="1" parent="UTV6f1B9EW_PD0q9mYSq-27">
          <mxGeometry y="60" width="320" height="30" as="geometry" />
        </mxCell>
        <mxCell id="UTV6f1B9EW_PD0q9mYSq-31" value="# printToLogFile(const string &amp;amp;filename, int sessionCount&lt;span style=&quot;background-color: initial;&quot;&gt;)&lt;/span&gt;" style="text;strokeColor=none;fillColor=none;align=left;verticalAlign=middle;spacingLeft=4;spacingRight=4;overflow=hidden;points=[[0,0.5],[1,0.5]];portConstraint=eastwest;rotatable=0;whiteSpace=wrap;html=1;" vertex="1" parent="UTV6f1B9EW_PD0q9mYSq-27">
          <mxGeometry y="90" width="320" height="30" as="geometry" />
        </mxCell>
        <mxCell id="UTV6f1B9EW_PD0q9mYSq-32" value="# calculateDominantFrequency(int electrode)" style="text;strokeColor=none;fillColor=none;align=left;verticalAlign=middle;spacingLeft=4;spacingRight=4;overflow=hidden;points=[[0,0.5],[1,0.5]];portConstraint=eastwest;rotatable=0;whiteSpace=wrap;html=1;" vertex="1" parent="UTV6f1B9EW_PD0q9mYSq-27">
          <mxGeometry y="120" width="320" height="30" as="geometry" />
        </mxCell>
        <mxCell id="UTV6f1B9EW_PD0q9mYSq-33" value="# initWaveforms()" style="text;strokeColor=none;fillColor=none;align=left;verticalAlign=middle;spacingLeft=4;spacingRight=4;overflow=hidden;points=[[0,0.5],[1,0.5]];portConstraint=eastwest;rotatable=0;whiteSpace=wrap;html=1;" vertex="1" parent="UTV6f1B9EW_PD0q9mYSq-27">
          <mxGeometry y="150" width="320" height="30" as="geometry" />
        </mxCell>
        <mxCell id="UTV6f1B9EW_PD0q9mYSq-47" style="edgeStyle=orthogonalEdgeStyle;rounded=0;orthogonalLoop=1;jettySize=auto;html=1;entryX=0.048;entryY=1.813;entryDx=0;entryDy=0;entryPerimeter=0;" edge="1" parent="WIyWlLk6GJQsqaUBKTNV-1" source="UTV6f1B9EW_PD0q9mYSq-35" target="UTV6f1B9EW_PD0q9mYSq-17">
          <mxGeometry relative="1" as="geometry">
            <mxPoint x="2110" y="1230" as="targetPoint" />
            <Array as="points">
              <mxPoint x="2990" y="2380" />
              <mxPoint x="256" y="2380" />
            </Array>
          </mxGeometry>
        </mxCell>
        <mxCell id="UTV6f1B9EW_PD0q9mYSq-35" value="sinewavechart" style="swimlane;fontStyle=0;childLayout=stackLayout;horizontal=1;startSize=30;horizontalStack=0;resizeParent=1;resizeParentMax=0;resizeLast=0;collapsible=1;marginBottom=0;whiteSpace=wrap;html=1;" vertex="1" parent="WIyWlLk6GJQsqaUBKTNV-1">
          <mxGeometry x="2720" y="240" width="320" height="120" as="geometry" />
        </mxCell>
        <mxCell id="UTV6f1B9EW_PD0q9mYSq-36" value="&lt;pre style=&quot;margin-top: 0px; margin-bottom: 0px;&quot;&gt;&lt;font face=&quot;Helvetica&quot;&gt;- WaveformGenerator *waveformGenerator&lt;/font&gt;&lt;/pre&gt;" style="text;strokeColor=none;fillColor=none;align=left;verticalAlign=middle;spacingLeft=4;spacingRight=4;overflow=hidden;points=[[0,0.5],[1,0.5]];portConstraint=eastwest;rotatable=0;whiteSpace=wrap;html=1;" vertex="1" parent="UTV6f1B9EW_PD0q9mYSq-35">
          <mxGeometry y="30" width="320" height="30" as="geometry" />
        </mxCell>
        <mxCell id="UTV6f1B9EW_PD0q9mYSq-37" value="" style="endArrow=none;html=1;rounded=0;" edge="1" parent="UTV6f1B9EW_PD0q9mYSq-35">
          <mxGeometry width="50" height="50" relative="1" as="geometry">
            <mxPoint x="1" y="60" as="sourcePoint" />
            <mxPoint x="321" y="60" as="targetPoint" />
          </mxGeometry>
        </mxCell>
        <mxCell id="UTV6f1B9EW_PD0q9mYSq-38" value="# SineWaveChart(WaveformGenerator *generator)" style="text;strokeColor=none;fillColor=none;align=left;verticalAlign=middle;spacingLeft=4;spacingRight=4;overflow=hidden;points=[[0,0.5],[1,0.5]];portConstraint=eastwest;rotatable=0;whiteSpace=wrap;html=1;" vertex="1" parent="UTV6f1B9EW_PD0q9mYSq-35">
          <mxGeometry y="60" width="320" height="30" as="geometry" />
        </mxCell>
        <mxCell id="UTV6f1B9EW_PD0q9mYSq-39" value="# *displayChart(int electrodeIndex) : QChartView" style="text;strokeColor=none;fillColor=none;align=left;verticalAlign=middle;spacingLeft=4;spacingRight=4;overflow=hidden;points=[[0,0.5],[1,0.5]];portConstraint=eastwest;rotatable=0;whiteSpace=wrap;html=1;" vertex="1" parent="UTV6f1B9EW_PD0q9mYSq-35">
          <mxGeometry y="90" width="320" height="30" as="geometry" />
        </mxCell>
        <mxCell id="UTV6f1B9EW_PD0q9mYSq-44" style="edgeStyle=orthogonalEdgeStyle;rounded=0;orthogonalLoop=1;jettySize=auto;html=1;entryX=0.585;entryY=1.151;entryDx=0;entryDy=0;entryPerimeter=0;" edge="1" parent="WIyWlLk6GJQsqaUBKTNV-1" source="UTV6f1B9EW_PD0q9mYSq-35" target="UTV6f1B9EW_PD0q9mYSq-33">
          <mxGeometry relative="1" as="geometry">
            <Array as="points">
              <mxPoint x="2830" y="520" />
              <mxPoint x="2507" y="520" />
            </Array>
          </mxGeometry>
        </mxCell>
        <mxCell id="UTV6f1B9EW_PD0q9mYSq-53" style="edgeStyle=orthogonalEdgeStyle;rounded=0;orthogonalLoop=1;jettySize=auto;html=1;entryX=0.192;entryY=1.44;entryDx=0;entryDy=0;entryPerimeter=0;" edge="1" parent="WIyWlLk6GJQsqaUBKTNV-1" source="UTV6f1B9EW_PD0q9mYSq-27" target="UTV6f1B9EW_PD0q9mYSq-17">
          <mxGeometry relative="1" as="geometry">
            <Array as="points">
              <mxPoint x="2470" y="2310" />
              <mxPoint x="302" y="2310" />
            </Array>
          </mxGeometry>
        </mxCell>
        <mxCell id="UTV6f1B9EW_PD0q9mYSq-54" style="edgeStyle=orthogonalEdgeStyle;rounded=0;orthogonalLoop=1;jettySize=auto;html=1;entryX=0.353;entryY=1.667;entryDx=0;entryDy=0;entryPerimeter=0;" edge="1" parent="WIyWlLk6GJQsqaUBKTNV-1" source="PDaaazuxyIUYCQPAJg8h-4" target="UTV6f1B9EW_PD0q9mYSq-33">
          <mxGeometry relative="1" as="geometry">
            <Array as="points">
              <mxPoint x="330" y="2290" />
              <mxPoint x="2433" y="2290" />
            </Array>
          </mxGeometry>
        </mxCell>
        <mxCell id="UTV6f1B9EW_PD0q9mYSq-55" style="edgeStyle=orthogonalEdgeStyle;rounded=0;orthogonalLoop=1;jettySize=auto;html=1;entryX=0.338;entryY=1.28;entryDx=0;entryDy=0;entryPerimeter=0;" edge="1" parent="WIyWlLk6GJQsqaUBKTNV-1" source="PDaaazuxyIUYCQPAJg8h-210" target="UTV6f1B9EW_PD0q9mYSq-17">
          <mxGeometry relative="1" as="geometry">
            <Array as="points">
              <mxPoint x="2180" y="2270" />
              <mxPoint x="348" y="2270" />
            </Array>
          </mxGeometry>
        </mxCell>
        <mxCell id="UTV6f1B9EW_PD0q9mYSq-56" style="edgeStyle=orthogonalEdgeStyle;rounded=0;orthogonalLoop=1;jettySize=auto;html=1;entryX=0.658;entryY=1.52;entryDx=0;entryDy=0;entryPerimeter=0;" edge="1" parent="WIyWlLk6GJQsqaUBKTNV-1" source="PDaaazuxyIUYCQPAJg8h-4" target="PDaaazuxyIUYCQPAJg8h-219">
          <mxGeometry relative="1" as="geometry">
            <Array as="points">
              <mxPoint x="380" y="2250" />
              <mxPoint x="2131" y="2250" />
            </Array>
          </mxGeometry>
        </mxCell>
        <mxCell id="UTV6f1B9EW_PD0q9mYSq-57" style="edgeStyle=orthogonalEdgeStyle;rounded=0;orthogonalLoop=1;jettySize=auto;html=1;entryX=0.523;entryY=1.28;entryDx=0;entryDy=0;entryPerimeter=0;" edge="1" parent="WIyWlLk6GJQsqaUBKTNV-1" source="PDaaazuxyIUYCQPAJg8h-143" target="UTV6f1B9EW_PD0q9mYSq-17">
          <mxGeometry relative="1" as="geometry">
            <Array as="points">
              <mxPoint x="1270" y="2230" />
              <mxPoint x="408" y="2230" />
            </Array>
          </mxGeometry>
        </mxCell>
        <mxCell id="UTV6f1B9EW_PD0q9mYSq-58" style="edgeStyle=orthogonalEdgeStyle;rounded=0;orthogonalLoop=1;jettySize=auto;html=1;entryX=0.353;entryY=1.378;entryDx=0;entryDy=0;entryPerimeter=0;" edge="1" parent="WIyWlLk6GJQsqaUBKTNV-1" source="PDaaazuxyIUYCQPAJg8h-4" target="PDaaazuxyIUYCQPAJg8h-157">
          <mxGeometry relative="1" as="geometry">
            <mxPoint x="1160" y="670" as="targetPoint" />
            <Array as="points">
              <mxPoint x="450" y="2200" />
              <mxPoint x="1203" y="2200" />
            </Array>
          </mxGeometry>
        </mxCell>
        <mxCell id="UTV6f1B9EW_PD0q9mYSq-59" style="edgeStyle=orthogonalEdgeStyle;rounded=0;orthogonalLoop=1;jettySize=auto;html=1;entryX=0.723;entryY=1.493;entryDx=0;entryDy=0;entryPerimeter=0;" edge="1" parent="WIyWlLk6GJQsqaUBKTNV-1" source="PDaaazuxyIUYCQPAJg8h-92" target="UTV6f1B9EW_PD0q9mYSq-17">
          <mxGeometry relative="1" as="geometry">
            <Array as="points">
              <mxPoint x="890" y="2170" />
              <mxPoint x="472" y="2170" />
            </Array>
          </mxGeometry>
        </mxCell>
        <mxCell id="UTV6f1B9EW_PD0q9mYSq-60" style="edgeStyle=orthogonalEdgeStyle;rounded=0;orthogonalLoop=1;jettySize=auto;html=1;entryX=0.478;entryY=1.64;entryDx=0;entryDy=0;entryPerimeter=0;" edge="1" parent="WIyWlLk6GJQsqaUBKTNV-1" source="PDaaazuxyIUYCQPAJg8h-4" target="PDaaazuxyIUYCQPAJg8h-133">
          <mxGeometry relative="1" as="geometry">
            <Array as="points">
              <mxPoint x="500" y="2130" />
              <mxPoint x="793" y="2130" />
            </Array>
          </mxGeometry>
        </mxCell>
      </root>
    </mxGraphModel>
  </diagram>
</mxfile>
